<?xml version="1.0" standalone="no"?>
<!DOCTYPE svg PUBLIC "-//W3C//DTD SVG 20010904//EN"
 "http://www.w3.org/TR/2001/REC-SVG-20010904/DTD/svg10.dtd">
<svg version="1.0" xmlns="http://www.w3.org/2000/svg"
 width="512.000000pt" height="512.000000pt" viewBox="0 0 512.000000 512.000000"
 preserveAspectRatio="xMidYMid meet">
<metadata>
Created by potrace 1.16, written by Peter Selinger 2001-2019
</metadata>
<g transform="translate(0.000000,512.000000) scale(0.100000,-0.100000)"
fill="#000000" stroke="none">
<path d="M3131 4604 c0 -11 3 -14 6 -6 3 7 2 16 -1 19 -3 4 -6 -2 -5 -13z"/>
<path d="M3103 4522 c-14 -30 -66 -92 -140 -167 -128 -131 -167 -192 -182
-286 -10 -60 -1 -132 24 -179 9 -17 49 -67 91 -113 41 -45 89 -110 106 -144
26 -54 30 -71 26 -122 -6 -79 -36 -117 -157 -196 -95 -62 -148 -110 -170 -152
-18 -36 -13 -34 32 10 23 24 80 66 127 94 172 104 210 149 210 242 0 84 -40
158 -143 268 -104 112 -122 152 -115 256 7 101 51 182 173 317 83 91 157 202
144 215 -3 2 -14 -17 -26 -43z"/>
<path d="M1845 4100 c-27 -138 -18 -239 28 -332 43 -88 121 -177 208 -238 69
-48 66 -39 -23 57 -31 35 -68 82 -82 105 -53 91 -71 245 -42 358 19 72 12 77
-9 8 -22 -69 -31 -212 -16 -262 14 -53 7 -57 -17 -9 -37 72 -46 152 -33 280 7
63 11 117 8 119 -2 3 -12 -36 -22 -86z"/>
<path d="M2019 3731 c6 -11 41 -46 78 -78 97 -84 122 -111 154 -168 16 -27 29
-43 29 -35 -1 31 -41 102 -86 150 -57 61 -191 161 -175 131z"/>
<path d="M2855 3622 c0 -86 -3 -103 -28 -149 -15 -29 -79 -107 -142 -174 -84
-89 -124 -140 -150 -191 -19 -39 -35 -76 -35 -83 0 -8 -27 -14 -82 -18 -46 -3
-84 -4 -86 -2 -2 1 2 24 9 49 17 69 6 155 -27 217 -31 57 -112 142 -164 173
-25 14 -19 5 26 -41 68 -69 107 -135 129 -218 20 -79 20 -104 -2 -100 -10 1
-12 0 -5 -2 7 -3 12 -21 12 -44 l0 -39 -42 0 c-24 0 -104 -7 -178 -15 -270
-30 -430 -66 -465 -105 -17 -18 -17 -22 -4 -36 43 -42 298 -98 579 -126 181
-18 758 -18 905 0 226 28 405 74 445 117 l22 24 -26 24 c-61 57 -390 117 -642
117 -39 0 -86 3 -103 6 l-32 7 28 29 c15 17 68 57 116 91 49 33 108 80 132
104 51 50 95 134 94 177 0 29 -1 29 -13 -10 -21 -67 -63 -111 -203 -216 -72
-54 -147 -116 -166 -138 l-34 -40 -97 0 c-96 0 -97 0 -91 23 18 57 68 128 167
235 59 64 122 144 140 177 30 55 33 67 33 150 0 50 -4 98 -10 107 -7 12 -10
-11 -10 -80z m-365 -647 c0 -12 -17 -15 -90 -15 -75 0 -88 2 -84 15 5 12 25
15 90 15 68 0 84 -3 84 -15z m211 2 c-12 -15 -191 -23 -191 -8 0 18 17 21 108
21 78 0 92 -2 83 -13z m434 -13 c196 -22 368 -68 390 -104 14 -22 -4 -22 -50
-1 -98 46 -338 85 -608 98 -130 6 -147 9 -129 27 9 10 230 -1 397 -20z m-837
4 c-3 -8 -62 -19 -169 -30 -228 -25 -364 -52 -461 -93 -11 -4 -18 -3 -18 4 0
20 85 51 205 77 218 46 451 68 443 42z"/>
<path d="M2898 3083 c17 -2 47 -2 65 0 17 2 3 4 -33 4 -36 0 -50 -2 -32 -4z"/>
<path d="M2030 3069 c-47 -5 -150 -19 -230 -33 -258 -44 -405 -99 -443 -165
-18 -29 -18 -34 -3 -94 10 -41 16 -107 16 -188 0 -350 34 -595 116 -850 4 -12
-12 -22 -73 -43 -300 -106 -543 -306 -543 -449 0 -87 68 -172 221 -273 284
-189 737 -334 1173 -375 159 -15 514 -6 676 16 358 49 747 180 1027 345 185
110 254 185 239 263 -9 51 -74 116 -178 181 -85 52 -251 126 -286 126 -9 0 20
13 64 29 216 75 374 212 475 414 76 150 90 294 38 388 -23 41 -78 89 -103 89
-6 0 4 -9 22 -20 45 -28 62 -73 62 -168 0 -154 -66 -313 -182 -437 -82 -88
-138 -130 -234 -179 -63 -31 -227 -86 -259 -86 -8 0 2 28 25 73 51 97 94 228
121 365 22 111 23 112 51 112 34 0 77 37 121 105 64 99 170 122 210 45 44 -87
-32 -290 -157 -416 -59 -59 -75 -68 -286 -168 l-35 -17 42 6 c89 11 262 104
343 185 62 62 117 154 145 242 29 92 31 146 8 195 -25 54 -66 75 -138 71 -75
-5 -116 -30 -173 -109 -32 -45 -48 -59 -67 -59 -18 0 -26 6 -29 23 -20 105
-29 137 -40 152 -11 16 -13 -1 -14 -107 -2 -270 -91 -546 -250 -780 -151 -220
-254 -312 -423 -378 -275 -106 -680 -111 -932 -11 -294 117 -506 374 -620 752
-52 171 -87 436 -87 662 l0 77 48 -24 c228 -115 791 -185 1285 -158 418 23
709 82 892 181 l73 39 8 -66 c8 -64 9 -61 15 78 4 80 10 163 14 186 7 38 5 44
-29 78 -35 34 -133 92 -142 83 -3 -2 10 -10 28 -18 50 -21 108 -77 108 -106 0
-80 -113 -169 -283 -222 -92 -28 -310 -69 -437 -81 -177 -18 -610 -24 -780
-11 -300 23 -570 72 -715 130 -38 15 -72 34 -77 42 -41 76 -58 128 -49 152 33
86 332 162 821 210 19 2 4 4 -35 4 -38 0 -108 -3 -155 -8z m-490 -1459 c16
-36 27 -66 25 -68 -1 -2 -46 -14 -98 -27 -99 -25 -181 -58 -255 -101 -56 -33
-49 -40 13 -14 63 27 267 86 325 94 l45 7 45 -73 c83 -133 244 -279 387 -351
191 -97 462 -129 773 -92 346 41 524 138 686 375 45 67 50 70 79 64 45 -9 246
-74 280 -91 28 -13 29 -13 10 3 -37 30 -154 82 -227 99 -40 10 -75 19 -77 21
-2 2 3 14 12 28 12 18 29 26 65 31 42 5 63 1 143 -30 157 -60 310 -156 348
-219 37 -59 29 -92 -36 -156 -134 -128 -503 -275 -895 -354 -279 -57 -394 -69
-663 -70 -385 -1 -721 51 -1045 160 -105 36 -290 118 -290 128 0 4 17 -1 38
-10 20 -9 52 -23 71 -31 18 -8 40 -12 48 -9 9 4 11 2 7 -6 -5 -8 -2 -9 9 -5 9
3 19 2 22 -3 10 -16 222 -79 354 -104 207 -40 387 -51 736 -45 167 2 165 3
-95 10 -282 7 -440 24 -610 65 -347 82 -624 230 -692 369 l-19 40 5 -38 c9
-71 88 -151 262 -264 37 -24 -30 4 -133 55 -178 90 -262 178 -250 264 16 122
229 296 479 393 35 13 69 23 76 22 7 -1 26 -31 42 -67z"/>
<path d="M3980 1231 c0 -40 -5 -49 -48 -90 -121 -116 -409 -234 -716 -296
-106 -21 -419 -65 -463 -65 -9 0 -14 -2 -11 -5 8 -9 243 14 410 40 362 56 607
145 776 282 64 52 90 120 62 163 -7 11 -10 3 -10 -29z"/>
<path d="M1337 1079 c12 -15 73 -53 73 -46 0 2 -19 17 -42 32 -24 16 -38 22
-31 14z"/>
<path d="M3065 3073 c207 -18 401 -51 510 -88 18 -6 18 -5 2 5 -52 34 -385 92
-502 88 -45 -1 -46 -2 -10 -5z"/>
<path d="M1575 2766 c58 -27 236 -70 380 -90 219 -32 385 -41 720 -40 334 0
466 9 673 45 99 18 66 20 -54 5 -221 -29 -432 -39 -692 -33 -424 9 -749 50
-1061 133 -9 2 7 -6 34 -20z"/>
<path d="M4108 2598 c-90 -12 -218 -71 -303 -141 -50 -42 -24 -38 50 7 130 80
274 114 358 87 87 -29 146 -145 155 -306 7 -117 19 -90 20 45 2 128 -39 228
-115 280 -42 29 -93 38 -165 28z"/>
<path d="M4068 2443 c7 -3 16 -2 19 1 4 3 -2 6 -13 5 -11 0 -14 -3 -6 -6z"/>
<path d="M3970 2420 c-18 -12 -2 -12 25 0 13 6 15 9 5 9 -8 0 -22 -4 -30 -9z"/>
<path d="M3914 2394 c-18 -14 -18 -14 6 -3 31 14 36 19 24 19 -6 0 -19 -7 -30
-16z"/>
<path d="M1626 2220 c9 -218 46 -396 114 -556 104 -244 248 -407 450 -509 118
-59 191 -76 340 -80 l135 -4 -124 14 c-222 26 -347 74 -478 184 -206 173 -331
454 -418 941 l-25 135 6 -125z"/>
<path d="M3212 2310 c0 -19 2 -27 5 -17 2 9 2 25 0 35 -3 9 -5 1 -5 -18z"/>
<path d="M3603 2305 c0 -22 2 -30 4 -17 2 12 2 30 0 40 -3 9 -5 -1 -4 -23z"/>
<path d="M3563 2235 c0 -22 2 -30 4 -17 2 12 2 30 0 40 -3 9 -5 -1 -4 -23z"/>
<path d="M3596 2239 c-3 -13 -8 -60 -11 -104 -3 -44 -12 -131 -21 -194 -8 -63
-12 -116 -10 -118 8 -8 37 178 47 301 9 119 7 171 -5 115z"/>
<path d="M3186 2097 c-28 -223 -107 -494 -202 -691 -14 -29 -14 -30 1 -11 29
36 102 197 133 295 44 139 84 325 76 356 -5 20 -4 25 5 20 9 -6 10 6 6 46 -5
40 -4 49 5 38 8 -11 9 -3 4 35 -4 28 -7 51 -8 52 -1 1 -10 -62 -20 -140z"/>
<path d="M3551 2160 c-2 -48 -71 -322 -107 -428 -20 -59 -59 -152 -87 -207
-43 -85 -66 -115 -147 -195 -100 -101 -177 -152 -292 -196 -119 -45 -70 -58
58 -15 246 82 423 334 533 756 33 123 55 263 48 291 -4 15 -5 13 -6 -6z"/>
</g>
</svg>